<svg width="110" height="30" viewBox="0 0 110 30" fill="none" xmlns="http://www.w3.org/2000/svg">
<g clip-path="url(#clip0_4010_117309)">
<g clip-path="url(#clip1_4010_117309)">
<path d="M14.4725 0.301758C6.49193 0.301758 0 6.79369 0 14.7743C0 22.7549 6.49193 29.2468 14.4725 29.2468C22.4531 29.2468 28.945 22.7549 28.945 14.7743C28.945 6.79369 22.4531 0.301758 14.4725 0.301758ZM14.4725 27.457C14.4451 27.457 14.4178 27.457 14.3938 27.457C12.5732 22.3955 15.8756 17.2827 21.1664 17.2827C23.9486 17.2827 24.9582 14.0967 24.8007 12.5704C24.7836 12.4506 24.6912 12.365 24.5783 12.365L19.3628 12.3582C19.2739 12.3582 19.1883 12.3171 19.1301 12.2487L18.5929 11.6156C18.3293 11.3076 17.9495 11.1194 17.5457 11.0988L16.5019 11.0475C16.3684 11.0406 16.2589 10.9482 16.2247 10.8216C15.7832 9.25083 14.9174 7.9983 14.2158 7.40626C14.1679 7.36862 14.0995 7.38573 14.0721 7.44048C13.7025 8.17283 13.4151 8.89834 13.2679 9.75047C13.2576 9.81549 13.1721 9.81549 13.1379 9.75047C12.5184 8.54585 11.7176 7.40968 10.8929 6.58493C10.8518 6.54386 10.7834 6.54729 10.7492 6.5952C10.0373 7.56026 9.16125 9.23372 9.01067 12.3103C9.00383 12.4472 8.91143 12.5601 8.77796 12.5943C7.43646 12.9365 5.63295 13.9085 5.01011 14.2575C4.8698 14.3362 4.89376 14.3944 5.01353 14.4081C5.13331 14.4218 7.09766 14.6271 7.18321 14.6374C7.26877 14.6476 7.30299 14.7161 7.1969 14.7572C6.13944 15.1507 3.97318 16.5264 3.30585 16.9576C3.17923 17.0398 3.26136 17.0911 3.32981 17.098C3.40167 17.1014 5.69113 17.2075 5.79722 17.2109C5.90331 17.2143 5.95464 17.3067 5.82117 17.3512C5.74931 17.3751 3.98345 18.0527 2.39897 18.6619C2.00541 17.4367 1.79324 16.1329 1.79324 14.7777C1.78981 7.76901 7.46726 2.09157 14.4725 2.09157C21.4778 2.09157 27.1552 7.76901 27.1552 14.7743C27.1552 21.7795 21.4778 27.457 14.4725 27.457ZM15.2938 12.1084C17.2342 12.1084 18.0248 12.4198 18.0248 13.3233C17.573 13.775 15.2938 13.4122 15.2938 12.1084Z" fill="white"/>
<path d="M45.3274 13.2685V21.3825H42.4733V13.5594C42.4733 11.5779 41.3371 10.4931 39.5131 10.4931C37.5042 10.4931 36.1559 11.7353 36.1559 14.2986V21.3825H33.3018V8.16596H36.1559V9.85653C37.0285 8.50818 38.3769 7.82031 40.2523 7.82031C43.2912 7.82031 45.3274 9.8839 45.3274 13.265V13.2685Z" fill="white"/>
<path d="M58.8591 8.16595H61.7132V21.3825H58.8591V19.4798C57.7743 20.9855 56.2411 21.7282 54.2323 21.7282C52.4082 21.7282 50.8751 21.0677 49.5815 19.7193C48.2845 18.371 47.6514 16.7044 47.6514 14.7777C47.6514 12.8509 48.2845 11.1809 49.5815 9.83598C50.8785 8.48763 52.4117 7.82715 54.2323 7.82715C56.2411 7.82715 57.7743 8.56635 58.8591 10.0482V8.16937V8.16595ZM54.6806 19.0041C55.8715 19.0041 56.8742 18.6071 57.6682 17.8131C58.4621 16.9952 58.8591 15.9891 58.8591 14.7742C58.8591 13.5593 58.4621 12.5532 57.6682 11.7593C56.8742 10.9414 55.8715 10.5444 54.6806 10.5444C53.4897 10.5444 52.4869 10.9414 51.693 11.7593C50.899 12.5532 50.5021 13.5559 50.5021 14.7742C50.5021 15.9925 50.899 16.9952 51.693 17.8131C52.4869 18.6071 53.4897 19.0041 54.6806 19.0041Z" fill="white"/>
<path d="M77.0686 13.2685V21.3825H74.2145V13.5594C74.2145 11.5779 73.0783 10.4931 71.2543 10.4931C69.2454 10.4931 67.8971 11.7353 67.8971 14.2986V21.3825H65.043V8.16596H67.8971V9.85653C68.7698 8.50818 70.1181 7.82031 71.9935 7.82031C75.0324 7.82031 77.0686 9.8839 77.0686 13.265V13.2685Z" fill="white"/>
<path d="M90.6546 8.16644H93.4574V20.7773C93.4574 22.7861 92.7969 24.3193 91.4759 25.4041C90.1549 26.4889 88.5431 27.016 86.6643 27.016C83.6254 27.016 81.5344 25.9585 80.3982 23.8162L82.8588 22.3891C83.5466 23.7375 84.8402 24.4253 86.719 24.4253C89.1796 24.4253 90.658 23.077 90.658 20.7773V19.1654C89.5732 20.6986 88.04 21.4651 86.0585 21.4651C84.1832 21.4651 82.6226 20.8046 81.3256 19.4837C80.0286 18.1353 79.3955 16.5235 79.3955 14.6447C79.3955 12.7659 80.0286 11.154 81.3256 9.83305C82.6226 8.4847 84.1798 7.82422 86.0585 7.82422C88.04 7.82422 89.5732 8.59079 90.658 10.1239V8.16644H90.6546ZM86.4521 18.7924C87.643 18.7924 88.6457 18.3954 89.4397 17.6015C90.261 16.8075 90.6546 15.8288 90.6546 14.6413C90.6546 13.4537 90.2576 12.475 89.4397 11.681C88.6457 10.8871 87.643 10.4901 86.4521 10.4901C85.2612 10.4901 84.2585 10.8871 83.4371 11.681C82.6432 12.475 82.2462 13.4537 82.2462 14.6413C82.2462 15.8288 82.6432 16.8109 83.4371 17.6015C84.255 18.3954 85.2612 18.7924 86.4521 18.7924Z" fill="white"/>
<path d="M98.0772 19.7164C96.7289 18.368 96.041 16.7288 96.041 14.7747C96.041 12.8206 96.7289 11.178 98.0772 9.83305C99.4256 8.4847 101.092 7.82422 103.022 7.82422C104.952 7.82422 106.619 8.4847 107.964 9.83305C109.312 11.1814 110 12.8206 110 14.7747C110 16.7288 109.312 18.3715 107.964 19.7164C106.616 21.0647 104.976 21.7252 103.022 21.7252C101.068 21.7252 99.4256 21.0647 98.0772 19.7164ZM103.022 18.9498C104.186 18.9498 105.165 18.5528 105.955 17.7589C106.749 16.9649 107.146 15.9622 107.146 14.7713C107.146 13.5804 106.749 12.5777 105.955 11.7837C105.161 10.9898 104.182 10.5928 103.022 10.5928C101.862 10.5928 100.88 10.9898 100.089 11.7837C99.2955 12.5777 98.8986 13.5804 98.8986 14.7713C98.8986 15.9622 99.2955 16.9649 100.089 17.7589C100.883 18.5528 101.862 18.9498 103.022 18.9498Z" fill="white"/>
</g>
</g>
<defs>
<clipPath id="clip0_4010_117309">
<rect width="110" height="28.945" fill="white" transform="translate(0 0.301758)"/>
</clipPath>
<clipPath id="clip1_4010_117309">
<rect width="110" height="28.945" fill="white" transform="translate(0 0.301758)"/>
</clipPath>
</defs>
</svg>
